<?xml version="1.0" standalone="no"?>
<!DOCTYPE svg PUBLIC "-//W3C//DTD SVG 20010904//EN"
 "http://www.w3.org/TR/2001/REC-SVG-20010904/DTD/svg10.dtd">
<svg version="1.0" xmlns="http://www.w3.org/2000/svg"
 width="500.000000pt" height="150.000000pt" viewBox="0 0 500.000000 150.000000"
 preserveAspectRatio="xMidYMid meet">

<g transform="translate(0.000000,150.000000) scale(0.100000,-0.100000)"
fill="#000000" stroke="none">
<path d="M2735 1090 c-28 -11 -90 -81 -114 -129 -48 -92 -45 -178 6 -229 l25
-25 31 32 32 32 -22 39 c-29 49 -29 94 -2 145 42 81 44 76 43 -118 -1 -201
-11 -247 -59 -269 -58 -26 -121 37 -80 82 10 11 25 20 32 20 32 0 4 25 -30 28
-71 6 -122 -82 -87 -149 25 -46 131 -64 202 -34 36 15 98 77 98 98 0 7 8 -3
18 -22 21 -42 60 -71 66 -50 2 8 13 50 25 94 27 99 67 189 80 180 6 -3 8 -44
4 -103 -8 -138 18 -183 105 -182 20 0 66 -3 102 -6 49 -5 76 -2 105 10 26 11
42 13 49 6 12 -12 76 -13 95 -1 9 6 23 5 38 -2 34 -15 71 5 92 53 17 39 31 43
31 9 0 -22 55 -69 81 -69 52 0 104 53 97 100 -5 34 -20 33 -43 -3 -11 -18 -27
-32 -35 -32 -13 0 -14 20 -12 127 l4 128 -38 17 c-25 12 -38 14 -41 7 -2 -7
-17 -4 -43 8 -32 16 -46 18 -70 10 -18 -7 -32 -7 -35 -1 -4 5 -19 9 -36 9 -24
0 -29 4 -29 25 0 38 -26 92 -50 105 -35 19 -50 -3 -50 -70 0 -49 -3 -58 -20
-63 -10 -3 -24 1 -31 9 -7 8 -30 14 -55 14 -51 0 -74 -25 -74 -80 0 -30 -36
-160 -45 -160 -1 0 -2 36 -1 81 1 77 0 82 -27 105 -33 28 -77 31 -100 6 -9 -9
-25 -38 -36 -62 l-21 -45 0 38 c0 40 -35 87 -65 87 -12 0 -15 14 -15 71 0 39
5 80 11 91 9 18 8 24 -7 35 -20 14 -68 16 -99 3z m535 -225 c0 -9 9 -15 25
-15 24 0 25 -3 25 -52 0 -29 -4 -59 -8 -65 -10 -16 -74 111 -66 132 8 19 24
20 24 0z m180 -19 c0 -2 -7 -21 -16 -42 -18 -44 -22 -160 -6 -191 13 -24 4
-37 -15 -22 -14 12 -18 129 -7 213 5 36 11 46 25 46 11 0 19 -2 19 -4z m159
-24 c17 -33 -46 -212 -75 -212 -17 0 -20 106 -4 159 18 62 59 90 79 53z m-391
-201 c-2 -23 -9 -37 -19 -39 -13 -2 -16 5 -15 34 1 45 -16 54 -33 18 -21 -46
-21 -20 0 37 11 30 22 61 25 69 9 24 45 -79 42 -119z"/>
<path d="M1325 1075 c-126 -45 -121 -176 9 -275 33 -25 79 -64 104 -87 37 -35
43 -47 40 -75 -3 -29 -8 -35 -44 -47 -34 -12 -46 -12 -84 0 -23 8 -50 24 -58
36 -13 21 -12 25 19 54 26 25 30 32 18 40 -19 12 -26 11 -65 -7 -59 -28 -82
-104 -48 -153 24 -33 74 -51 144 -51 71 0 123 19 166 61 l31 30 31 -30 c54
-55 107 -32 133 59 l14 45 7 -50 c7 -51 41 -95 74 -95 10 0 14 -13 14 -48 0
-54 20 -82 58 -82 21 0 22 5 22 70 0 67 1 70 19 60 29 -15 136 -12 176 4 27
12 42 12 65 4 17 -5 49 -7 73 -4 48 7 72 8 107 4 24 -3 25 -1 30 72 3 41 11
85 18 97 l12 22 33 -19 c39 -24 68 -25 107 -5 23 12 30 22 30 45 0 37 -18 48
-36 21 -17 -24 -46 -27 -64 -6 -9 11 -9 22 1 49 14 37 6 56 -32 77 -27 14 -59
-22 -60 -68 l-1 -38 -10 38 c-11 42 -42 67 -79 66 -13 0 -42 5 -64 12 -51 15
-107 -6 -132 -49 l-17 -29 -32 33 c-37 40 -69 43 -108 13 -24 -19 -28 -20 -39
-6 -7 9 -24 19 -39 23 l-28 6 -1 -58 c-1 -33 -4 -48 -6 -34 -6 31 -51 80 -74
80 -13 0 -22 -21 -38 -87 -25 -100 -55 -173 -70 -173 -7 0 -11 40 -11 113 0
121 -5 136 -56 151 -25 8 -34 -13 -34 -84 l0 -44 -37 35 c-21 20 -68 59 -106
88 -65 51 -83 79 -75 118 2 9 15 22 30 27 34 12 68 -14 68 -53 0 -39 14 -53
46 -49 41 4 62 45 45 87 -26 61 -121 94 -196 66z m909 -259 c-6 -21 -42 -55
-58 -56 -11 0 2 49 20 78 13 19 18 21 30 11 9 -7 12 -20 8 -33z m-238 -11 c9
-34 -5 -152 -22 -193 -9 -23 -19 -32 -31 -30 -28 5 -31 143 -4 203 22 50 47
59 57 20z m294 -124 c0 -72 -2 -80 -21 -86 -50 -16 -99 28 -99 88 0 20 6 26
34 31 19 4 45 15 58 26 13 11 24 19 26 20 1 0 2 -36 2 -79z m-463 -48 c-2 -16
-4 -3 -4 27 0 30 2 43 4 28 2 -16 2 -40 0 -55z m273 -45 c0 -5 -6 -8 -14 -8
-9 0 -12 7 -9 21 4 16 8 17 14 7 5 -7 9 -16 9 -20z"/>
</g>
</svg>
